<svg xmlns="http://www.w3.org/2000/svg" viewBox="0 0 294 64"><circle cx="32" cy="32" r="29" fill="none" stroke="#0B2E33" stroke-width="2.5"/><circle cx="32" cy="32" r="22" fill="none" stroke="#0E7C86" stroke-width="1.4" stroke-dasharray="2 3"/><path d="M32 6 L37 32 L32 58 L27 32 Z" fill="#0B2E33"/><path d="M32 6 L37 32 L32 32 Z" fill="#FF6B57"/><path d="M6 32 L32 28 L58 32 L32 36 Z" fill="#0B2E33" opacity=".35"/><circle cx="32" cy="32" r="3" fill="#F2F7F7" stroke="#0B2E33" stroke-width="1.5"/><g transform="translate(78 0)"><path fill="#0B2E33" d="M8.87 48L2.79 48L2.79 19.40L14.74 19.40Q20.24 19.40 22.77 21.73Q25.30 24.06 25.30 27.98L25.30 27.98Q25.30 31.90 22.79 34.25Q20.28 36.60 14.74 36.60L14.74 36.60L8.87 36.60L8.87 48ZM8.87 24.02L8.87 31.98L13.82 31.98Q16.32 31.98 17.73 31.11Q19.14 30.25 19.14 28.02L19.14 28.02Q19.14 25.82 17.73 24.92Q16.32 24.02 13.82 24.02L13.82 24.02L8.87 24.02ZM38.32 48.55L38.32 48.55Q33.11 48.55 30.38 45.43Q27.65 42.32 27.65 36.96L27.65 36.96Q27.65 33.37 28.88 30.80Q30.10 28.24 32.47 26.84Q34.83 25.45 38.24 25.45L38.24 25.45Q43.16 25.45 45.78 28.42Q48.40 31.39 48.40 37.15L48.40 37.15L48.40 38.39L33.44 38.39Q33.62 41.18 34.89 42.77Q36.15 44.37 38.32 44.37L38.32 44.37Q40.04 44.37 41.09 43.34Q42.13 42.32 42.46 40.96L42.46 40.96L48.11 40.96Q47.78 42.98 46.64 44.70Q45.50 46.42 43.45 47.49Q41.40 48.55 38.32 48.55ZM33.44 34.65L33.44 34.65L42.61 34.65Q42.46 32.16 41.36 30.79Q40.26 29.41 38.21 29.41L38.21 29.41Q36.19 29.41 34.96 30.71Q33.73 32.01 33.44 34.65ZM58.08 48L52.14 48L52.14 26L57.57 26L57.57 30.03L58.45 30.03Q58.67 28.93 59.27 27.96Q59.88 26.99 61.12 26.39Q62.37 25.78 64.46 25.78L64.46 25.78L65.63 25.78L65.63 31.13L64.02 31.13Q60.90 31.13 59.49 32.71Q58.08 34.29 58.08 37.44L58.08 37.44L58.08 48ZM78.65 48.55L78.65 48.55Q73.44 48.55 70.71 45.43Q67.98 42.32 67.98 36.96L67.98 36.96Q67.98 33.37 69.21 30.80Q70.44 28.24 72.80 26.84Q75.17 25.45 78.58 25.45L78.58 25.45Q83.49 25.45 86.11 28.42Q88.73 31.39 88.73 37.15L88.73 37.15L88.73 38.39L73.77 38.39Q73.96 41.18 75.22 42.77Q76.49 44.37 78.65 44.37L78.65 44.37Q80.37 44.37 81.42 43.34Q82.46 42.32 82.79 40.96L82.79 40.96L88.44 40.96Q88.11 42.98 86.97 44.70Q85.84 46.42 83.78 47.49Q81.73 48.55 78.65 48.55ZM73.77 34.65L73.77 34.65L82.94 34.65Q82.79 32.16 81.69 30.79Q80.59 29.41 78.54 29.41L78.54 29.41Q76.52 29.41 75.30 30.71Q74.07 32.01 73.77 34.65ZM101.86 55.88L101.86 55.88Q98.78 55.88 96.89 55.13Q95.00 54.38 94.00 53.24Q92.99 52.11 92.58 50.93Q92.18 49.76 92.11 48.88L92.11 48.88L97.90 48.88Q98.08 49.94 98.93 50.82Q99.77 51.70 101.79 51.70L101.79 51.70Q104.06 51.70 105.20 50.37Q106.33 49.03 106.33 46.57L106.33 46.57L106.33 43.97L105.45 43.97Q104.94 45.54 103.55 46.44Q102.15 47.34 99.88 47.34L99.88 47.34Q95.59 47.34 93.34 44.35Q91.08 41.36 91.08 36.38L91.08 36.38Q91.08 33.19 92.07 30.71Q93.06 28.24 95.04 26.84Q97.02 25.45 99.99 25.45L99.99 25.45Q102.26 25.45 103.64 26.31Q105.01 27.17 105.67 28.64L105.67 28.64L106.55 28.64L106.55 26L112.05 26L112.05 46.35Q112.05 50.90 109.56 53.39Q107.07 55.88 101.86 55.88ZM101.49 43.16L101.49 43.16Q103.66 43.16 104.89 41.33Q106.11 39.49 106.11 36.38L106.11 36.38Q106.11 33.26 104.89 31.45Q103.66 29.63 101.49 29.63L101.49 29.63Q99.48 29.63 98.29 31.32Q97.09 33.00 97.09 36.38L97.09 36.38Q97.09 39.82 98.29 41.49Q99.48 43.16 101.49 43.16ZM123.35 48L117.41 48L117.41 26L122.83 26L122.83 30.03L123.71 30.03Q123.93 28.93 124.54 27.96Q125.14 26.99 126.39 26.39Q127.64 25.78 129.73 25.78L129.73 25.78L130.90 25.78L130.90 31.13L129.29 31.13Q126.17 31.13 124.76 32.71Q123.35 34.29 123.35 37.44L123.35 37.44L123.35 48ZM140.65 48L134.71 48L134.71 26L140.65 26L140.65 48ZM137.68 23.47L137.68 23.47Q136.11 23.47 135.30 22.64Q134.49 21.82 134.49 20.50L134.49 20.50Q134.49 19.18 135.30 18.36Q136.11 17.53 137.68 17.53L137.68 17.53Q139.26 17.53 140.07 18.36Q140.87 19.18 140.87 20.50L140.87 20.50Q140.87 21.82 140.07 22.64Q139.26 23.47 137.68 23.47ZM152.02 48L146.08 48L146.08 26L151.58 26L151.58 29.30L152.46 29.30Q153.12 27.65 154.50 26.55Q155.87 25.45 158.55 25.45L158.55 25.45Q162.21 25.45 164.05 27.76Q165.88 30.07 165.88 34.03L165.88 34.03L165.88 48L159.94 48L159.94 35.02Q159.94 32.75 159.13 31.52Q158.33 30.29 156.49 30.29L156.49 30.29Q154.37 30.29 153.19 31.96Q152.02 33.63 152.02 36.12L152.02 36.12L152.02 48ZM178.13 48.55L178.13 48.55Q174.46 48.55 172.59 46.24Q170.72 43.93 170.72 39.97L170.72 39.97L170.72 26L176.66 26L176.66 38.98Q176.66 41.22 177.47 42.46Q178.27 43.71 180.07 43.71L180.07 43.71Q182.23 43.71 183.41 42.02Q184.58 40.34 184.58 37.88L184.58 37.88L184.58 26L190.52 26L190.52 48L185.17 48L185.17 44.70L184.29 44.70Q183.74 46.35 182.27 47.45Q180.80 48.55 178.13 48.55ZM204.16 48.55L204.16 48.55Q200.49 48.55 198.31 47.40Q196.13 46.24 195.12 44.48Q194.11 42.72 193.97 40.96L193.97 40.96L199.61 40.96Q199.80 41.91 200.40 42.70Q201.01 43.49 202.02 43.93Q203.02 44.37 204.45 44.37L204.45 44.37Q206.21 44.37 206.98 43.77Q207.75 43.16 207.75 42.21L207.75 42.21Q207.75 41.33 207.04 40.72Q206.32 40.12 204.71 39.60L204.71 39.60L202.07 38.72Q200.16 38.06 198.55 37.27Q196.94 36.49 195.97 35.24Q194.99 33.99 194.99 32.01L194.99 32.01Q194.99 29.08 197.23 27.27Q199.47 25.45 203.57 25.45L203.57 25.45Q206.54 25.45 208.43 26.37Q210.32 27.28 211.27 28.80Q212.23 30.33 212.37 32.16L212.37 32.16L206.95 32.16Q206.76 30.84 205.85 30.13Q204.93 29.41 203.35 29.41L203.35 29.41Q201.92 29.41 201.21 29.96Q200.49 30.51 200.49 31.46L200.49 31.46Q200.49 32.42 201.26 33.04Q202.03 33.66 203.61 34.18L203.61 34.18L206.25 35.02Q208.16 35.61 209.75 36.39Q211.35 37.18 212.30 38.45Q213.25 39.71 213.25 41.73L213.25 41.73Q213.25 44.81 210.93 46.68Q208.60 48.55 204.16 48.55Z"/></g></svg>
